<svg width="40" height="40" viewBox="0 0 40 40" fill="none" xmlns="http://www.w3.org/2000/svg">
  <rect width="40" height="40" rx="8" fill="#ffffff"/>
  <path d="M20 8C13.373 8 8 13.373 8 20C8 26.627 13.373 32 20 32C26.627 32 32 26.627 32 20C32 13.373 26.627 8 20 8ZM20 12C24.418 12 28 15.582 28 20C28 24.418 24.418 28 20 28C15.582 28 12 24.418 12 20C12 15.582 15.582 12 20 12Z" fill="#1976D2"/>
  <path d="M24 18H21V16C21 15.448 20.552 15 20 15C19.448 15 19 15.448 19 16V18H16C15.448 18 15 18.448 15 19C15 19.552 15.448 20 16 20H19V24C19 24.552 19.448 25 20 25C20.552 25 21 24.552 21 24V20H24C24.552 20 25 19.552 25 19C25 18.448 24.552 18 24 18Z" fill="#1976D2"/>
</svg>